<svg width="120" height="30" viewBox="0 0 120 30" fill="none" xmlns="http://www.w3.org/2000/svg">
<path opacity="0.2" d="M30 15C30 23.2843 23.2843 30 15 30C6.71573 30 0 23.2843 0 15C0 6.71573 6.71573 0 15 0C23.2843 0 30 6.71573 30 15ZM5.82206 15C5.82206 20.0688 9.93116 24.1779 15 24.1779C20.0688 24.1779 24.1779 20.0688 24.1779 15C24.1779 9.93116 20.0688 5.82206 15 5.82206C9.93116 5.82206 5.82206 9.93116 5.82206 15Z" fill="#D1D5DB"/>
<path d="M26.0711 10.1447C27.5434 9.49895 29.2914 10.1686 29.641 11.7379C30.151 14.0271 30.1201 16.418 29.5323 18.7164C28.7025 21.9611 26.8107 24.8348 24.1583 26.8796C21.5059 28.9245 18.2454 30.0228 14.8964 29.9996C11.5473 29.9765 8.30233 28.8332 5.67841 26.7519C3.0545 24.6707 1.20259 21.7711 0.417721 18.5152C-0.367143 15.2594 -0.0398089 11.8345 1.34757 8.78624C2.73496 5.73799 5.10257 3.24172 8.07323 1.69514C10.1775 0.59962 12.4986 0.0252566 14.8438 0.000814452C16.4515 -0.0159403 17.5014 1.53369 17.2078 3.11436V3.11436C16.9142 4.69504 15.3716 5.68973 13.7782 5.90376C12.7321 6.04427 11.7109 6.36512 10.7618 6.85925C8.94413 7.80555 7.49547 9.33292 6.64659 11.198C5.7977 13.0631 5.59741 15.1587 6.07764 17.1508C6.55787 19.143 7.69099 20.9171 9.29647 22.1906C10.9019 23.464 12.8874 24.1636 14.9366 24.1777C16.9857 24.1919 18.9807 23.5199 20.6036 22.2687C22.2265 21.0176 23.3841 19.2593 23.8918 17.2739C24.1569 16.2373 24.2369 15.1698 24.1356 14.1192C23.9813 12.5189 24.5987 10.7904 26.0711 10.1447V10.1447Z" fill="#5750F1"/>
<!-- N -->
<path d="M45 5H48L57 19V5H60V25H57L48 11V25H45V5Z" fill="white"/>
<!-- S -->
<path d="M65 25C61 25 58 22 58 18C58 14 61 11 65 11C69 11 72 14 72 18V19L62 19C63 21 64 22 66 22C68 22 69 21 70 20H73C72 23 70 25 65 25ZM65 14C63 14 62 15 62 17H69C69 15 68 14 65 14Z" fill="white"/>
<!-- D -->
<path d="M80 5H83L90 5C92 5 94 6 95 8C96 10 96 12 96 15C96 18 96 20 95 22C94 24 92 25 90 25H83L80 25V5ZM83 22H90C91 22 92 21 92 20C93 19 93 18 93 15C93 12 93 11 92 10C92 9 91 8 90 8H83V22Z" fill="white"/>
<!-- S -->
<path d="M100 25C96 25 93 22 93 18C93 14 96 11 100 11C104 11 107 14 107 18V19L97 19C98 21 99 22 101 22C103 22 104 21 105 20H108C107 23 105 25 100 25ZM100 14C98 14 97 15 97 17H104C104 15 103 14 100 14Z" fill="white"/>
</svg>
